<?xml version="1.0" encoding="utf-8"?>
<svg version="1.1" id="Orange_PMS_144" xmlns="http://www.w3.org/2000/svg" xmlns:xlink="http://www.w3.org/1999/xlink" x="0px"
     y="0px" viewBox="0 0 1000 370" style="background-color: #ff8200" enable-background="new 0 0 1000 370" xml:space="preserve">
  <path fill="#ffffff" d="M943.9,216.9c-9.8,25-28.9,45.4-48.6,52c-4.6,1.5-8.9,2.2-13.2,2.1l0,0c-10,0-18.6-5.3-22.6-13l0,0
                          c-5.1-11-9.6-32.9-7.7-66.9c0.8-14.4,5.8-47.3,11.6-82c26.7-3.1,55.2-5.9,85-8.1l-4.5-60.2c-1.8,0.1-30.3,2.3-69.7,6.6
                          c2.5-14,4.7-26.1,6.4-34.9L821.1,1.4c-0.4,2.3-4.6,24.7-9.7,53.7c-3,0.4-6,0.8-9,1.3c-136.7,19.4-170,39.5-184.6,56.5
                          c-15.7,18.3-21,42-14.2,63.2c4.6,14.2,18.7,39.6,61.6,49.9c39.7,9.5,56.8,19.1,57.1,31.9c0.2,8.9-5.2,14.7-9.8,18
                          c-10.7,7.6-26.2,8.8-41.5,3.1c-26.5-9.9-24.2-40.8-23.4-47.6l-59.3-11.1c-1.1,6.2-1.6,13.9-1.3,22.3c-6.6,6.3-54.3,50.5-107.6,44.3
                          c-5.7-0.7-10.8-2.3-15.3-4.9c8.6-2.2,17.9-4.8,27.3-8c56.6-19.2,87.6-47.8,92.3-85c4.2-33.7-12.8-63.4-44.3-77.4
                          c-35.9-16-90.8-10.7-126.1,30.2c-17.3,20-27.8,46.3-31,73.6c-7.3-14-18.6-25.9-33.3-34.8c17.8-16.6,30.3-36.5,34.6-57.1
                          c5.6-26.6-2-51.9-21.6-71.3c-35.4-35.1-93.3-34.3-176.3,2.7l1.1-41.2L126.3,12l-1.9,74c-66.9,38-122,80.5-124.5,82.4l36.9,47.7
                          c0.5-0.4,37.2-28.7,85.7-58.8l-5,194l23.1,6c3,0.8,53.9,13.8,109.5,10.9c23-1.2,46.8-5.1,68.4-13.8c35.1-14.1,61.3-44,69.8-77.3
                          c0.5,1.6,1,3.2,1.7,4.8c14.4,36.9,44.3,60.6,82.2,64.9c8.6,1,17,1.2,25.2,0.8c46.7-2.4,86.1-25.7,109.7-43.4
                          c9.6,12.9,23.4,24.1,42.6,31.3c15.1,5.6,30.7,8,45.7,7.2c18.9-1,36.9-7,51.9-17.7c23-16.4,35.8-41.5,35.1-68.7
                          c-1.7-64.6-72.9-81.7-103.3-89c-1.7-0.4-3.3-0.9-4.7-1.3l0,0c-7.5-2.2-12.9-5.4-13.5-8.2c-0.7-3.6,4.1-7.8,12-11.2l0,0
                          c20.4-9.1,66.4-19.8,127.8-29.2c-4.7,29.1-8.5,56.1-9.3,70.3c-2.5,45.6,2.7,105,41.9,129.3c16.7,10.4,35.5,15.1,54.6,14.1
                          c8.7-0.5,17.5-2.1,26.2-5c36.5-12.1,69.4-45.5,85.7-87.1L943.9,216.9z M183.9,122.5c79.3-40.3,121.9-41.2,135.5-27.6
                          c4.9,4.9,6.4,9.7,5.1,16c-3,14.3-20.8,34.3-48.8,45c-17.5,6.7-41.4,12.1-65.3,16c-8.9,1.5-19.1,2.5-27.9,3.7L183.9,122.5z
                          M296.3,298.4c-37.3,14.9-87.9,10-117.1,5.2l1.7-66.1l35.3-5.9c0,0,47.3-8.4,71.3-7.5c24,0.9,38.4,7.3,43.1,24.7
                          c0.2,0.8,0.5,2.7,0.5,4.6C331.4,268.4,319.3,289.2,296.3,298.4z M458.8,181.1c9.8-11.4,24.1-16.9,37-17.6c7-0.4,13.7,0.7,19,3.1
                          c9.4,4.2,9.6,9.9,8.9,14.8c-1.8,14.1-35.3,33.5-81.8,44.1C443.2,208.8,449.1,192.4,458.8,181.1z" />
</svg>
