<?xml version="1.0" encoding="UTF-8" standalone="no"?>
<svg viewBox="0 0 870 149"
     preserveAspectRatio="xMinYMin meet"
     xmlns="http://www.w3.org/2000/svg" version="1.1"
     xmlns:xlink="http://www.w3.org/1999/xlink">
 <path
         d="M851.89536,93.37542 C849.60781,89.59945 847.23093,87.234048 844.63318,85.634548 C855.20412,82.126648 859.94643,76.018448 859.94643,65.26881 C859.94643,48.966248 850.04056,41.047935 829.67353,41.047935 L798.74706,41.047935 L798.74706,122.87091 L819.54683,122.87091 L819.54683,90.58749 L822.18926,90.58749 C826.87666,90.58749 828.56423,91.84231 832.22787,98.10624 L846.68712,122.87091 L869.38636,122.87091 L851.89536,93.37542 L851.89536,93.37542 Z M819.54683,56.838598 L829.01868,56.838598 C837.11443,56.838598 839.70195,59.16061 839.70195,66.367898 C839.70195,73.529223 836.81445,76.195885 829.01868,76.195885 L819.54683,76.195885 L819.54683,56.838598 L819.54683,56.838598 Z M747.21868,106.27986 L747.21868,89.14374 L774.90405,89.14374 L774.90405,73.331373 L747.21868,73.331373 L747.21868,57.627498 L782.28877,57.627498 L782.28877,41.047935 L726.4419,41.047935 L726.4419,122.87091 L783.95465,122.87091 L785.42137,106.27986 L747.21868,106.27986 L747.21868,106.27986 Z M683.80965,79.592748 C684.59855,78.582998 714.24848,41.047935 714.24848,41.047935 L692.63812,41.047935 C692.63812,41.047935 668.7849,72.453123 666.08631,75.97251 L666.08631,41.047935 L645.30825,41.047935 L645.30825,122.87091 L666.08631,122.87091 L666.08631,88.26675 C668.7849,91.82061 692.21558,122.87091 692.21558,122.87091 L716.91388,122.87091 C716.91388,122.87091 684.59855,80.626723 683.80965,79.592748 L683.80965,79.592748 Z M610.11688,41.047935 L610.11688,85.768585 C607.36213,82.092173 576.6348,41.047935 576.6348,41.047935 L559.18848,41.047935 L559.18848,122.87091 L576.82372,122.87091 L576.82372,73.40796 C579.60018,77.094573 613.90308,122.87091 613.90308,122.87091 L627.75087,122.87091 L627.75087,41.047935 L610.11688,41.047935 L610.11688,41.047935 Z M507.64988,106.27986 L507.64988,89.14374 L535.34675,89.14374 L535.34675,73.331373 L507.64988,73.331373 L507.64988,57.627498 L542.71998,57.627498 L542.71998,41.047935 L486.86161,41.047935 L486.86161,122.87091 L544.39733,122.87091 L545.83981,106.27986 L507.64988,106.27986 L507.64988,106.27986 Z M448.52616,41.047935 L448.52616,72.786285 L419.79787,72.786285 L419.79787,41.047935 L399.00958,41.047935 L399.00958,122.87091 L419.79787,122.87091 L419.79787,89.14374 L448.52616,89.14374 L448.52616,122.87091 L469.31571,122.87091 L469.31571,41.047935 L448.52616,41.047935 L448.52616,41.047935 Z M384.02952,104.35741 C376.34353,107.2564 371.3472,108.26742 364.87265,108.26742 C351.41292,108.26742 346.17148,100.98226 346.17148,82.236435 C346.17148,62.679997 351.26866,55.417823 364.98371,55.417823 C371.3472,55.417823 376.91158,56.561598 383.57381,59.205285 L384.71757,59.671223 L384.71757,42.736785 L384.17376,42.524873 C377.92132,40.22586 371.6574,39.171435 364.4399,39.171435 C353.23452,39.171435 343.69503,42.358935 336.8541,48.422448 C328.29241,55.97311 324.30582,66.745748 324.30582,82.347498 C324.30582,95.57361 327.01588,105.03525 332.8458,112.09829 C339.64205,120.22722 350.33681,124.5138 363.78503,124.5138 C371.31401,124.5138 378.543,122.9692 384.67288,120.0268 L385.15031,119.81617 L385.15031,103.93615 L384.02952,104.35741 L384.02952,104.35741 Z M294.82182,73.840698 C294.83331,73.85346 293.5236,73.286685 293.5236,73.286685 C285.14956,69.643473 284.81638,69.509423 282.82882,68.08866 C280.08556,66.134298 279.17541,64.61266 279.17541,62.069823 C279.17541,57.59431 282.86202,55.306773 290.15738,55.306773 C296.61023,55.306773 301.32957,56.417348 308.82536,59.760585 L310.00231,60.271198 L310.00231,43.169535 L309.44701,42.957623 C302.24101,40.303723 296.21068,39.171435 289.29191,39.171435 C270.6801,39.171435 260.01981,48.233523 260.01981,64.045885 C260.01981,75.950798 265.32762,82.792998 278.98648,88.4225 C293.48913,94.53069 294.86651,96.06252 294.86651,100.52655 C294.86651,105.73479 290.53523,108.37847 282.00675,108.37847 C274.65522,108.37847 269.0921,106.90153 260.78572,102.7477 L259.56408,102.13752 L259.56408,119.2494 L260.05171,119.49448 C267.76962,123.07005 274.51096,124.5138 283.31775,124.5138 C303.67327,124.5138 314.88886,115.45172 314.88886,98.98321 C314.88886,86.50131 309.82488,80.160798 294.82182,73.840698 L294.82182,73.840698 Z" fill="#000000"></path>
 <path d="M64.114953,122.85942 L29.211323,122.85942 L29.211323,26.35636 L64.114953,26.35636 C88.701534,26.35636 101.87226,41.992573 101.87226,74.162385 C101.87226,102.09157 93.099054,122.6373 64.114953,122.85942 L64.114953,122.85942 Z M79.273214,76.172923 C79.273214,56.728823 77.285674,41.558548 56.652223,41.558548 L52.032733,41.558548 L52.032733,107.21174 L60.161673,107.21174 C72.232784,107.21174 79.273214,97.39522 79.273214,76.172923 L79.273214,76.172923 Z M148.85708,122.85942 L111.97726,122.85942 L111.97726,26.35636 L150.62381,26.35636 C168.84626,26.35636 178.71893,33.963198 178.71893,52.052898 C178.71893,61.436673 171.03423,68.133348 162.69466,72.375235 C174.33277,75.717198 182.22811,82.881073 182.22811,94.92897 C182.22811,114.59645 165.98172,122.85942 148.85708,122.85942 L148.85708,122.85942 Z M134.58676,64.556498 L142.49487,64.556498 C149.95746,64.556498 155.44271,61.215823 155.44271,52.94136 C155.44271,43.780998 148.41285,41.326223 140.95026,41.326223 L134.58676,41.326223 L134.58676,64.556498 L134.58676,64.556498 Z M158.07491,94.486 C158.07491,84.657998 151.93351,82.42536 142.9391,82.42536 L134.58676,82.42536 L134.58676,107.21174 L142.7157,107.21174 C150.84465,107.21174 158.07491,104.53612 158.07491,94.486 L158.07491,94.486 Z M187.50273,0.903648 L21.515764,0.903648 C10.111252,0.903648 0.6719566,10.05381 0.6719566,21.892335 L0.6719566,127.10132 C0.6719566,138.93857 10.111252,148.32235 21.515764,148.32235 L187.50273,148.32235 C198.69661,148.32235 208.14676,138.93857 208.14676,127.10132 L208.14676,21.892335 C208.14676,10.05381 198.69661,0.903648 187.50273,0.903648 L187.50273,0.903648 Z M192.98925,127.10132 C192.98925,130.45477 190.7898,133.14315 187.50273,133.14315 L21.515764,133.14315 C18.228701,133.14315 15.818743,130.45477 15.818743,127.10132 L15.818743,21.892335 C15.818743,18.537623 18.228701,15.862023 21.515764,15.862023 L187.50273,15.862023 C190.7898,15.862023 192.98925,18.537623 192.98925,21.892335 L192.98925,127.10132 L192.98925,127.10132 Z" fill="#FF0000"></path>
</svg>
