<?xml version="1.0" encoding="UTF-8" standalone="no"?>
<!-- Created with Inkscape (http://www.inkscape.org/) -->
<svg
   xmlns:svg="http://www.w3.org/2000/svg"
   xmlns="http://www.w3.org/2000/svg"
   version="1.0"
   width="654.45093"
   height="218.59073"
   id="svg4515">
  <defs
     id="defs4517" />
  <g
     transform="translate(-341.95657,-178.23685)"
     id="layer1">
    <g
       id="g4732">
      <rect
         width="654.45093"
         height="218.59073"
         x="341.95657"
         y="178.23685"
         style="color:#000000;fill:#1c146b;fill-opacity:1;fill-rule:nonzero;stroke:none;stroke-width:36;stroke-linecap:butt;stroke-linejoin:miter;marker:none;marker-start:none;marker-mid:none;marker-end:none;stroke-miterlimit:4;stroke-dasharray:none;stroke-dashoffset:0;stroke-opacity:1;visibility:visible;display:inline;overflow:visible;enable-background:accumulate"
         id="rect4513" />
      <g
         transform="matrix(2.4647772,0,0,2.4647772,-529.93015,-563.97862)"
         id="g4574">
        <path
           d="M 457.35505,364.89593 C 456.59883,364.57094 455.73386,364.34595 454.97764,364.34595 C 452.49399,364.34595 450.76657,366.50836 450.76657,369.10826 C 450.76657,370.29571 451.52278,371.48316 453.35896,371.48316 C 453.89769,371.48316 454.43892,371.37066 454.87015,371.25817 L 455.51887,367.80831 L 457.03006,367.80831 L 456.16634,372.34562 C 455.19388,372.67061 454.00643,372.8831 453.03397,372.8831 C 450.44158,372.8831 449.14663,371.37066 449.14663,369.20825 C 449.14663,365.6459 451.73778,363.05851 455.19388,363.05851 C 456.05885,363.05851 457.03006,363.1585 457.78628,363.38349 L 457.35505,364.89593 z "
           style="fill:#ffffff;fill-rule:evenodd;stroke:none;stroke-width:0.21600001;stroke-linecap:butt;stroke-linejoin:miter;stroke-miterlimit:10;stroke-dasharray:none"
           id="path4310" />
        <path
           d="M 459.7312,369.75823 C 459.7312,369.97072 459.7312,370.29571 459.7312,370.5082 C 459.7312,371.37066 460.05493,371.69565 461.13489,371.69565 C 461.78111,371.69565 462.43109,371.48316 463.08106,371.25817 L 463.08106,372.44562 C 462.31859,372.77061 461.56862,372.8831 460.59491,372.8831 C 458.97498,372.8831 458.21876,372.13313 458.21876,370.5082 C 458.21876,367.69581 459.83869,365.5459 462.1061,365.5459 C 463.61854,365.5459 464.15602,366.40837 464.15602,367.27083 C 464.15602,368.78327 462.64358,369.64573 459.7312,369.75823 z M 461.89361,366.73335 C 460.91865,366.73335 460.27118,367.59582 459.94744,368.67077 C 461.78111,368.67077 462.75607,368.23329 462.75607,367.37083 C 462.75607,366.94585 462.43109,366.73335 461.89361,366.73335"
           style="fill:#ffffff;fill-rule:evenodd;stroke:none;stroke-width:0.21600001;stroke-linecap:butt;stroke-linejoin:miter;stroke-miterlimit:10;stroke-dasharray:none"
           id="path4312" />
        <path
           d="M 470.53075,372.77061 L 469.13081,372.77061 L 469.88078,368.23329 C 470.10577,367.27083 469.99328,366.83335 469.4558,366.83335 C 468.26835,366.83335 466.9684,369.43324 466.64341,371.04568 L 466.31843,372.77061 L 464.80599,372.77061 L 465.56846,369.10826 C 465.78095,367.92081 465.99344,366.62086 466.10594,365.6459 L 467.61837,365.6459 C 467.50588,366.18338 467.29339,366.94585 466.85591,368.23329 L 466.85591,368.23329 C 467.61837,366.83335 468.58083,365.5459 469.99328,365.5459 C 471.29322,365.5459 471.71821,366.50836 471.39322,367.92081 L 470.53075,372.77061 z "
           style="fill:#ffffff;fill-rule:evenodd;stroke:none;stroke-width:0.21600001;stroke-linecap:butt;stroke-linejoin:miter;stroke-miterlimit:10;stroke-dasharray:none"
           id="path4314" />
        <path
           d="M 474.2056,369.75823 C 474.2056,369.97072 474.2056,370.29571 474.2056,370.5082 C 474.2056,371.37066 474.53059,371.69565 475.60555,371.69565 C 476.25552,371.69565 476.90549,371.48316 477.55547,371.25817 L 477.55547,372.44562 C 476.793,372.77061 476.04303,372.8831 475.06807,372.8831 C 473.44314,372.8831 472.69317,372.13313 472.69317,370.5082 C 472.69317,367.69581 474.3056,365.5459 476.58051,365.5459 C 478.09294,365.5459 478.63042,366.40837 478.63042,367.27083 C 478.63042,368.78327 477.11798,369.64573 474.2056,369.75823 z M 476.36802,366.73335 C 475.39306,366.73335 474.74308,367.59582 474.4181,368.67077 C 476.36802,368.67077 477.23048,368.23329 477.23048,367.37083 C 477.23048,366.94585 476.90549,366.73335 476.36802,366.73335"
           style="fill:#ffffff;fill-rule:evenodd;stroke:none;stroke-width:0.21600001;stroke-linecap:butt;stroke-linejoin:miter;stroke-miterlimit:10;stroke-dasharray:none"
           id="path4316" />
        <path
           d="M 484.24269,367.04584 C 483.05524,366.73335 481.76779,368.99576 481.33031,371.15817 L 481.11782,372.77061 L 479.60538,372.77061 L 480.25536,369.10826 C 480.46785,368.0208 480.68034,366.73335 480.90533,365.6459 L 482.30527,365.6459 C 482.19278,366.29587 482.09278,366.94585 481.6553,368.1333 L 481.6553,368.1333 C 482.41777,366.50836 483.28023,365.32091 484.46768,365.5459 L 484.24269,367.04584 z "
           style="fill:#ffffff;fill-rule:evenodd;stroke:none;stroke-width:0.21600001;stroke-linecap:butt;stroke-linejoin:miter;stroke-miterlimit:10;stroke-dasharray:none"
           id="path4318" />
        <path
           d="M 490.19245,372.77061 L 488.68001,372.77061 C 488.8925,372.13313 489.10499,371.37066 489.42998,370.18321 L 489.42998,370.18321 C 488.8925,371.25817 487.91754,372.8831 486.30511,372.8831 C 485.33015,372.8831 484.79267,372.23313 484.79267,370.72069 C 484.79267,368.1333 486.08012,365.5459 489.10499,365.5459 C 489.96746,365.5459 490.72993,365.6459 491.47989,365.75839 C 490.72993,369.43324 490.51743,371.04568 490.19245,372.77061 z M 488.8925,366.73335 C 487.05508,366.73335 486.30511,368.78327 486.30511,370.5082 C 486.30511,371.25817 486.5176,371.58316 486.95508,371.58316 C 488.03004,371.58316 489.42998,368.99576 489.64247,367.37083 L 489.75497,366.94585 C 489.54247,366.83335 489.21749,366.73335 488.8925,366.73335"
           style="fill:#ffffff;fill-rule:evenodd;stroke:none;stroke-width:0.21600001;stroke-linecap:butt;stroke-linejoin:miter;stroke-miterlimit:10;stroke-dasharray:none"
           id="path4320" />
        <path
           d="M 493.7548,372.77061 L 492.24236,372.77061 L 494.07979,363.05851 L 495.47973,363.05851 L 493.7548,372.77061 z "
           style="fill:#ffffff;fill-rule:evenodd;stroke:none;stroke-width:0.21600001;stroke-linecap:butt;stroke-linejoin:miter;stroke-miterlimit:10;stroke-dasharray:none"
           id="path4322" />
        <path
           d="M 504.11688,372.77061 L 499.47957,372.77061 L 501.31699,363.05851 L 502.71693,363.05851 L 501.2045,371.37066 L 504.34187,371.37066 L 504.11688,372.77061 z "
           style="fill:#ffffff;fill-rule:evenodd;stroke:none;stroke-width:0.21600001;stroke-linecap:butt;stroke-linejoin:miter;stroke-miterlimit:10;stroke-dasharray:none"
           id="path4324" />
        <path
           d="M 508.00422,372.8831 C 506.17929,372.8831 505.41682,372.02064 505.41682,370.3957 C 505.41682,367.48332 507.25425,365.5459 509.51665,365.5459 C 511.35408,365.5459 512.11655,366.62086 512.11655,368.1333 C 512.11655,371.04568 510.16663,372.8831 508.00422,372.8831 z M 509.30416,366.83335 C 507.79173,366.83335 506.92926,368.55828 506.92926,370.18321 C 506.92926,371.04568 507.25425,371.58316 508.22921,371.58316 C 509.51665,371.58316 510.60411,370.18321 510.60411,368.34579 C 510.60411,367.37083 510.16663,366.83335 509.30416,366.83335"
           style="fill:#ffffff;fill-rule:evenodd;stroke:none;stroke-width:0.21600001;stroke-linecap:butt;stroke-linejoin:miter;stroke-miterlimit:10;stroke-dasharray:none"
           id="path4326" />
        <path
           d="M 518.49129,373.32058 C 518.1663,375.14551 516.97885,376.34546 514.37895,376.34546 C 513.62899,376.34546 512.97901,376.23296 512.44153,376.02047 L 512.76652,374.60803 C 513.304,374.93302 514.05397,375.04551 514.60395,375.04551 C 516.00389,375.04551 516.86635,374.50804 517.07884,373.09559 C 517.29134,372.13313 517.40383,371.58316 517.84131,370.18321 L 517.84131,370.18321 C 517.29134,371.25817 516.32887,372.8831 514.81644,372.8831 C 513.72898,372.8831 513.1915,372.23313 513.1915,370.72069 C 513.1915,368.1333 514.60395,365.5459 517.62882,365.5459 C 518.37879,365.5459 519.12876,365.6459 519.89123,365.75839 L 518.49129,373.32058 z M 517.29134,366.73335 C 515.46641,366.73335 514.70394,368.78327 514.70394,370.5082 C 514.70394,371.25817 514.92893,371.58316 515.35391,371.58316 C 516.54137,371.58316 517.84131,368.99576 518.1663,367.37083 L 518.2663,366.94585 C 517.94131,366.83335 517.72882,366.73335 517.29134,366.73335"
           style="fill:#ffffff;fill-rule:evenodd;stroke:none;stroke-width:0.21600001;stroke-linecap:butt;stroke-linejoin:miter;stroke-miterlimit:10;stroke-dasharray:none"
           id="path4328" />
        <path
           d="M 522.15364,372.77061 L 520.6412,372.77061 L 522.05364,365.6459 L 523.45358,365.6459 L 522.15364,372.77061 z M 523.0286,364.67094 C 522.47862,364.67094 522.15364,364.24596 522.15364,363.70848 C 522.15364,363.1585 522.59112,362.73352 523.1286,362.73352 C 523.66607,362.73352 524.10356,363.1585 523.99106,363.59598 C 523.99106,364.24596 523.56608,364.67094 523.0286,364.67094"
           style="fill:#ffffff;fill-rule:evenodd;stroke:none;stroke-width:0.21600001;stroke-linecap:butt;stroke-linejoin:miter;stroke-miterlimit:10;stroke-dasharray:none"
           id="path4330" />
        <path
           d="M 528.75337,366.83335 C 528.52837,366.73335 528.10339,366.73335 527.77841,366.73335 C 527.01594,366.73335 526.59095,367.04584 526.59095,367.59582 C 526.59095,368.67077 528.52837,368.99576 528.52837,370.5082 C 528.52837,371.69565 527.55341,372.8831 525.5035,372.8831 C 524.96602,372.8831 524.64103,372.8831 524.31605,372.77061 L 524.54104,371.48316 C 524.85353,371.58316 525.29101,371.69565 525.61599,371.69565 C 526.47846,371.69565 527.01594,371.37066 527.01594,370.72069 C 527.01594,369.64573 525.07852,369.43324 525.07852,367.80831 C 525.07852,366.50836 526.04098,365.5459 527.8784,365.5459 C 528.31588,365.5459 528.75337,365.6459 529.06585,365.6459 L 528.75337,366.83335 z "
           style="fill:#ffffff;fill-rule:evenodd;stroke:none;stroke-width:0.21600001;stroke-linecap:butt;stroke-linejoin:miter;stroke-miterlimit:10;stroke-dasharray:none"
           id="path4332" />
        <path
           d="M 534.69062,366.83335 L 532.95319,366.83335 L 532.31572,370.29571 C 532.09073,371.37066 532.20322,371.58316 532.8532,371.58316 C 533.27818,371.58316 533.50317,371.58316 533.82816,371.48316 L 533.71566,372.77061 C 533.27818,372.8831 532.7407,372.8831 532.31572,372.8831 C 530.90328,372.8831 530.47829,372.23313 530.80328,370.5082 L 531.45325,366.83335 L 530.15331,366.83335 L 530.3658,365.6459 L 531.66575,365.6459 L 532.09073,363.48349 L 533.60317,363.1585 L 533.17818,365.6459 L 534.90311,365.6459 L 534.69062,366.83335 z "
           style="fill:#ffffff;fill-rule:evenodd;stroke:none;stroke-width:0.21600001;stroke-linecap:butt;stroke-linejoin:miter;stroke-miterlimit:10;stroke-dasharray:none"
           id="path4334" />
        <path
           d="M 536.95303,372.77061 L 535.44059,372.77061 L 536.74054,365.6459 L 538.25298,365.6459 L 536.95303,372.77061 z M 537.81549,364.67094 C 537.27802,364.67094 536.95303,364.24596 536.95303,363.70848 C 536.95303,363.1585 537.39051,362.73352 537.92799,362.73352 C 538.46547,362.73352 538.79045,363.1585 538.79045,363.59598 C 538.79045,364.24596 538.36547,364.67094 537.81549,364.67094"
           style="fill:#ffffff;fill-rule:evenodd;stroke:none;stroke-width:0.21600001;stroke-linecap:butt;stroke-linejoin:miter;stroke-miterlimit:10;stroke-dasharray:none"
           id="path4336" />
        <path
           d="M 544.40272,367.04584 C 544.07774,366.94585 543.76525,366.83335 543.21527,366.83335 C 541.60284,366.83335 540.95286,368.67077 540.95286,370.18321 C 540.95286,370.83319 541.16536,371.58316 542.25281,371.58316 C 542.79029,371.58316 543.32777,371.48316 543.65275,371.25817 L 543.54026,372.55812 C 543.11528,372.77061 542.4653,372.8831 541.81533,372.8831 C 539.9779,372.8831 539.32793,371.90814 539.32793,370.5082 C 539.32793,367.80831 540.84037,365.5459 543.32777,365.5459 C 543.86524,365.5459 544.30273,365.6459 544.8402,365.75839 L 544.40272,367.04584 z "
           style="fill:#ffffff;fill-rule:evenodd;stroke:none;stroke-width:0.21600001;stroke-linecap:butt;stroke-linejoin:miter;stroke-miterlimit:10;stroke-dasharray:none"
           id="path4338" />
        <path
           d="M 549.49001,366.83335 C 549.26502,366.73335 548.84004,366.73335 548.51505,366.73335 C 547.75259,366.73335 547.3276,367.04584 547.3276,367.59582 C 547.3276,368.67077 549.26502,368.99576 549.26502,370.5082 C 549.26502,371.69565 548.19007,372.8831 546.24015,372.8831 C 545.70267,372.8831 545.37768,372.8831 545.0527,372.77061 L 545.27769,371.48316 C 545.60267,371.58316 546.02766,371.69565 546.35264,371.69565 C 547.21511,371.69565 547.75259,371.37066 547.75259,370.72069 C 547.75259,369.64573 545.81516,369.43324 545.81516,367.80831 C 545.81516,366.50836 546.79012,365.5459 548.61505,365.5459 C 549.05253,365.5459 549.49001,365.6459 549.815,365.6459 L 549.49001,366.83335 z "
           style="fill:#ffffff;fill-rule:evenodd;stroke:none;stroke-width:0.21600001;stroke-linecap:butt;stroke-linejoin:miter;stroke-miterlimit:10;stroke-dasharray:none"
           id="path4340" />
        <path
           d="M 559.73959,364.57094 C 559.31461,364.34595 558.77713,364.34595 558.45215,364.34595 C 557.1522,364.34595 556.50223,364.99593 556.50223,365.75839 C 556.50223,367.37083 559.31461,367.37083 559.31461,369.64573 C 559.31461,371.48316 557.80217,372.8831 555.53977,372.8831 C 554.98979,372.8831 554.45231,372.8831 553.91483,372.67061 L 554.23982,371.25817 C 554.6648,371.37066 555.20228,371.58316 555.63976,371.58316 C 557.0397,371.58316 557.68968,370.93318 557.68968,369.97072 C 557.68968,368.34579 554.98979,368.34579 554.98979,366.08338 C 554.98979,364.45845 556.17724,363.05851 558.55214,363.05851 C 558.98962,363.05851 559.5271,363.05851 559.96458,363.1585 L 559.73959,364.57094 z "
           style="fill:#ffffff;fill-rule:evenodd;stroke:none;stroke-width:0.21600001;stroke-linecap:butt;stroke-linejoin:miter;stroke-miterlimit:10;stroke-dasharray:none"
           id="path4342" />
        <path
           d="M 562.1145,375.04551 C 561.25203,375.90798 560.38957,376.34546 559.5271,376.34546 C 559.20212,376.34546 558.77713,376.34546 558.45215,376.23296 L 558.77713,374.93302 C 558.98962,374.93302 559.31461,375.04551 559.6396,375.04551 C 560.06458,375.04551 560.61456,374.83302 561.03954,374.28304 C 561.47702,373.85806 561.68951,373.20809 561.68951,372.23313 C 561.68951,370.29571 561.36453,368.0208 560.71455,365.6459 L 562.33949,365.6459 C 562.76447,367.37083 563.08946,369.53324 563.08946,371.04568 C 563.08946,371.25817 563.08946,371.48316 562.98946,371.80815 L 562.98946,371.80815 C 564.06442,369.85823 564.92688,367.92081 565.90184,365.43341 L 567.30178,365.85839 C 565.46436,370.29571 563.73943,373.32058 562.1145,375.04551"
           style="fill:#ffffff;fill-rule:evenodd;stroke:none;stroke-width:0.21600001;stroke-linecap:butt;stroke-linejoin:miter;stroke-miterlimit:10;stroke-dasharray:none"
           id="path4344" />
        <path
           d="M 571.62661,366.83335 C 571.30162,366.73335 570.97663,366.73335 570.65165,366.73335 C 569.78918,366.73335 569.46419,367.04584 569.46419,367.59582 C 569.46419,368.67077 571.41411,368.99576 571.41411,370.5082 C 571.41411,371.69565 570.32666,372.8831 568.27674,372.8831 C 567.85176,372.8831 567.52677,372.8831 567.08929,372.77061 L 567.41428,371.48316 C 567.73926,371.58316 568.06425,371.69565 568.48923,371.69565 C 569.3642,371.69565 569.90168,371.37066 569.90168,370.72069 C 569.90168,369.64573 567.95176,369.43324 567.95176,367.80831 C 567.95176,366.50836 568.81422,365.5459 570.76414,365.5459 C 571.18912,365.5459 571.51411,365.6459 571.95159,365.6459 L 571.62661,366.83335 z "
           style="fill:#ffffff;fill-rule:evenodd;stroke:none;stroke-width:0.21600001;stroke-linecap:butt;stroke-linejoin:miter;stroke-miterlimit:10;stroke-dasharray:none"
           id="path4346" />
        <path
           d="M 577.56386,366.83335 L 575.83893,366.83335 L 575.18896,370.29571 C 574.97647,371.37066 575.07646,371.58316 575.72644,371.58316 C 576.05142,371.58316 576.37641,371.58316 576.5889,371.48316 L 576.48891,372.77061 C 576.05142,372.8831 575.62644,372.8831 575.18896,372.8831 C 573.78902,372.8831 573.35153,372.23313 573.67652,370.5082 L 574.32649,366.83335 L 573.02655,366.83335 L 573.25154,365.6459 L 574.53899,365.6459 L 574.97647,363.48349 L 576.48891,363.1585 L 576.05142,365.6459 L 577.77635,365.6459 L 577.56386,366.83335 z "
           style="fill:#ffffff;fill-rule:evenodd;stroke:none;stroke-width:0.21600001;stroke-linecap:butt;stroke-linejoin:miter;stroke-miterlimit:10;stroke-dasharray:none"
           id="path4348" />
        <path
           d="M 579.93876,369.75823 C 579.83877,369.97072 579.83877,370.29571 579.83877,370.5082 C 579.83877,371.37066 580.16376,371.69565 581.23871,371.69565 C 581.88868,371.69565 582.63865,371.48316 583.18863,371.25817 L 583.18863,372.44562 C 582.53866,372.77061 581.66369,372.8831 580.70123,372.8831 C 579.0763,372.8831 578.32633,372.13313 578.32633,370.5082 C 578.32633,367.69581 579.93876,365.5459 582.21367,365.5459 C 583.8261,365.5459 584.37608,366.40837 584.37608,367.27083 C 584.37608,368.78327 582.75115,369.64573 579.93876,369.75823 z M 582.00118,366.73335 C 581.02622,366.73335 580.37625,367.59582 580.05126,368.67077 C 582.00118,368.67077 582.86364,368.23329 582.86364,367.37083 C 582.86364,366.94585 582.53866,366.73335 582.00118,366.73335"
           style="fill:#ffffff;fill-rule:evenodd;stroke:none;stroke-width:0.21600001;stroke-linecap:butt;stroke-linejoin:miter;stroke-miterlimit:10;stroke-dasharray:none"
           id="path4350" />
        <path
           d="M 594.73816,372.77061 L 593.33821,372.77061 L 594.20068,368.23329 C 594.31317,367.27083 594.20068,366.83335 593.6632,366.83335 C 592.80074,366.83335 591.2883,368.99576 590.96331,371.04568 L 590.63833,372.77061 L 589.12589,372.77061 L 589.98835,368.23329 C 590.20084,367.27083 589.98835,366.83335 589.55087,366.83335 C 588.47591,366.83335 587.07597,369.32075 586.75098,371.04568 L 586.426,372.77061 L 585.01356,372.77061 L 585.66353,369.10826 C 585.87602,367.92081 586.10101,366.62086 586.3135,365.6459 L 587.71345,365.6459 C 587.61345,366.18338 587.50095,366.94585 587.07597,368.23329 L 587.07597,368.23329 C 587.71345,366.83335 588.68841,365.5459 590.10085,365.5459 C 590.96331,365.5459 591.50079,366.08338 591.50079,366.94585 C 591.50079,367.27083 591.38829,367.69581 591.1758,368.23329 L 591.1758,368.23329 C 591.82578,366.83335 592.90073,365.5459 594.20068,365.5459 C 595.50063,365.5459 595.92561,366.50836 595.71312,367.92081 L 594.73816,372.77061 z "
           style="fill:#ffffff;fill-rule:evenodd;stroke:none;stroke-width:0.21600001;stroke-linecap:butt;stroke-linejoin:miter;stroke-miterlimit:10;stroke-dasharray:none"
           id="path4352" />
        <path
           d="M 601.43788,366.83335 C 601.1129,366.73335 600.78791,366.73335 600.46292,366.73335 C 599.60046,366.73335 599.16298,367.04584 599.16298,367.59582 C 599.16298,368.67077 601.1129,368.99576 601.1129,370.5082 C 601.1129,371.69565 600.13794,372.8831 598.08802,372.8831 C 597.65054,372.8831 597.22555,372.8831 596.90057,372.77061 L 597.11306,371.48316 C 597.55054,371.58316 597.87553,371.69565 598.30051,371.69565 C 599.06298,371.69565 599.60046,371.37066 599.60046,370.72069 C 599.60046,369.64573 597.65054,369.43324 597.65054,367.80831 C 597.65054,366.50836 598.6255,365.5459 600.46292,365.5459 C 601.0004,365.5459 601.32539,365.6459 601.65037,365.6459 L 601.43788,366.83335 z "
           style="fill:#ffffff;fill-rule:evenodd;stroke:none;stroke-width:0.21600001;stroke-linecap:butt;stroke-linejoin:miter;stroke-miterlimit:10;stroke-dasharray:none"
           id="path4354" />
        <path
           d="M 457.35505,364.89593 C 456.59883,364.57094 455.73386,364.34595 454.97764,364.34595 C 452.49399,364.34595 450.76657,366.50836 450.76657,369.10826 C 450.76657,370.29571 451.52278,371.48316 453.35896,371.48316 C 453.89769,371.48316 454.43892,371.37066 454.87015,371.25817 L 455.51887,367.80831 L 457.03006,367.80831 L 456.16634,372.34562 C 455.19388,372.67061 454.00643,372.8831 453.03397,372.8831 C 450.44158,372.8831 449.14663,371.37066 449.14663,369.20825 C 449.14663,365.6459 451.73778,363.05851 455.19388,363.05851 C 456.05885,363.05851 457.03006,363.1585 457.78628,363.38349 L 457.35505,364.89593 z "
           style="fill:#ffffff;fill-rule:evenodd;stroke:none;stroke-width:0.21600001;stroke-linecap:butt;stroke-linejoin:miter;stroke-miterlimit:10;stroke-dasharray:none"
           id="path4356" />
        <path
           d="M 459.7312,369.75823 C 459.7312,369.97072 459.7312,370.29571 459.7312,370.5082 C 459.7312,371.37066 460.05493,371.69565 461.13489,371.69565 C 461.78111,371.69565 462.43109,371.48316 463.08106,371.25817 L 463.08106,372.44562 C 462.31859,372.77061 461.56862,372.8831 460.59491,372.8831 C 458.97498,372.8831 458.21876,372.13313 458.21876,370.5082 C 458.21876,367.69581 459.83869,365.5459 462.1061,365.5459 C 463.61854,365.5459 464.15602,366.40837 464.15602,367.27083 C 464.15602,368.78327 462.64358,369.64573 459.7312,369.75823 z M 461.89361,366.73335 C 460.91865,366.73335 460.27118,367.59582 459.94744,368.67077 C 461.78111,368.67077 462.75607,368.23329 462.75607,367.37083 C 462.75607,366.94585 462.43109,366.73335 461.89361,366.73335"
           style="fill:#ffffff;fill-rule:evenodd;stroke:none;stroke-width:0.21600001;stroke-linecap:butt;stroke-linejoin:miter;stroke-miterlimit:10;stroke-dasharray:none"
           id="path4358" />
        <path
           d="M 470.53075,372.77061 L 469.13081,372.77061 L 469.88078,368.23329 C 470.10577,367.27083 469.99328,366.83335 469.4558,366.83335 C 468.26835,366.83335 466.9684,369.43324 466.64341,371.04568 L 466.31843,372.77061 L 464.80599,372.77061 L 465.56846,369.10826 C 465.78095,367.92081 465.99344,366.62086 466.10594,365.6459 L 467.61837,365.6459 C 467.50588,366.18338 467.29339,366.94585 466.85591,368.23329 L 466.85591,368.23329 C 467.61837,366.83335 468.58083,365.5459 469.99328,365.5459 C 471.29322,365.5459 471.71821,366.50836 471.39322,367.92081 L 470.53075,372.77061 z "
           style="fill:#ffffff;fill-rule:evenodd;stroke:none;stroke-width:0.21600001;stroke-linecap:butt;stroke-linejoin:miter;stroke-miterlimit:10;stroke-dasharray:none"
           id="path4360" />
        <path
           d="M 474.2056,369.75823 C 474.2056,369.97072 474.2056,370.29571 474.2056,370.5082 C 474.2056,371.37066 474.53059,371.69565 475.60555,371.69565 C 476.25552,371.69565 476.90549,371.48316 477.55547,371.25817 L 477.55547,372.44562 C 476.793,372.77061 476.04303,372.8831 475.06807,372.8831 C 473.44314,372.8831 472.69317,372.13313 472.69317,370.5082 C 472.69317,367.69581 474.3056,365.5459 476.58051,365.5459 C 478.09294,365.5459 478.63042,366.40837 478.63042,367.27083 C 478.63042,368.78327 477.11798,369.64573 474.2056,369.75823 z M 476.36802,366.73335 C 475.39306,366.73335 474.74308,367.59582 474.4181,368.67077 C 476.36802,368.67077 477.23048,368.23329 477.23048,367.37083 C 477.23048,366.94585 476.90549,366.73335 476.36802,366.73335"
           style="fill:#ffffff;fill-rule:evenodd;stroke:none;stroke-width:0.21600001;stroke-linecap:butt;stroke-linejoin:miter;stroke-miterlimit:10;stroke-dasharray:none"
           id="path4362" />
        <path
           d="M 484.24269,367.04584 C 483.05524,366.73335 481.76779,368.99576 481.33031,371.15817 L 481.11782,372.77061 L 479.60538,372.77061 L 480.25536,369.10826 C 480.46785,368.0208 480.68034,366.73335 480.90533,365.6459 L 482.30527,365.6459 C 482.19278,366.29587 482.09278,366.94585 481.6553,368.1333 L 481.6553,368.1333 C 482.41777,366.50836 483.28023,365.32091 484.46768,365.5459 L 484.24269,367.04584 z "
           style="fill:#ffffff;fill-rule:evenodd;stroke:none;stroke-width:0.21600001;stroke-linecap:butt;stroke-linejoin:miter;stroke-miterlimit:10;stroke-dasharray:none"
           id="path4364" />
        <path
           d="M 490.19245,372.77061 L 488.68001,372.77061 C 488.8925,372.13313 489.10499,371.37066 489.42998,370.18321 L 489.42998,370.18321 C 488.8925,371.25817 487.91754,372.8831 486.30511,372.8831 C 485.33015,372.8831 484.79267,372.23313 484.79267,370.72069 C 484.79267,368.1333 486.08012,365.5459 489.10499,365.5459 C 489.96746,365.5459 490.72993,365.6459 491.47989,365.75839 C 490.72993,369.43324 490.51743,371.04568 490.19245,372.77061 z M 488.8925,366.73335 C 487.05508,366.73335 486.30511,368.78327 486.30511,370.5082 C 486.30511,371.25817 486.5176,371.58316 486.95508,371.58316 C 488.03004,371.58316 489.42998,368.99576 489.64247,367.37083 L 489.75497,366.94585 C 489.54247,366.83335 489.21749,366.73335 488.8925,366.73335"
           style="fill:#ffffff;fill-rule:evenodd;stroke:none;stroke-width:0.21600001;stroke-linecap:butt;stroke-linejoin:miter;stroke-miterlimit:10;stroke-dasharray:none"
           id="path4366" />
        <path
           d="M 493.7548,372.77061 L 492.24236,372.77061 L 494.07979,363.05851 L 495.47973,363.05851 L 493.7548,372.77061 z "
           style="fill:#ffffff;fill-rule:evenodd;stroke:none;stroke-width:0.21600001;stroke-linecap:butt;stroke-linejoin:miter;stroke-miterlimit:10;stroke-dasharray:none"
           id="path4368" />
        <path
           d="M 504.11688,372.77061 L 499.47957,372.77061 L 501.31699,363.05851 L 502.71693,363.05851 L 501.2045,371.37066 L 504.34187,371.37066 L 504.11688,372.77061 z "
           style="fill:#ffffff;fill-rule:evenodd;stroke:none;stroke-width:0.21600001;stroke-linecap:butt;stroke-linejoin:miter;stroke-miterlimit:10;stroke-dasharray:none"
           id="path4370" />
        <path
           d="M 508.00422,372.8831 C 506.17929,372.8831 505.41682,372.02064 505.41682,370.3957 C 505.41682,367.48332 507.25425,365.5459 509.51665,365.5459 C 511.35408,365.5459 512.11655,366.62086 512.11655,368.1333 C 512.11655,371.04568 510.16663,372.8831 508.00422,372.8831 z M 509.30416,366.83335 C 507.79173,366.83335 506.92926,368.55828 506.92926,370.18321 C 506.92926,371.04568 507.25425,371.58316 508.22921,371.58316 C 509.51665,371.58316 510.60411,370.18321 510.60411,368.34579 C 510.60411,367.37083 510.16663,366.83335 509.30416,366.83335"
           style="fill:#ffffff;fill-rule:evenodd;stroke:none;stroke-width:0.21600001;stroke-linecap:butt;stroke-linejoin:miter;stroke-miterlimit:10;stroke-dasharray:none"
           id="path4372" />
        <path
           d="M 518.49129,373.32058 C 518.1663,375.14551 516.97885,376.34546 514.37895,376.34546 C 513.62899,376.34546 512.97901,376.23296 512.44153,376.02047 L 512.76652,374.60803 C 513.304,374.93302 514.05397,375.04551 514.60395,375.04551 C 516.00389,375.04551 516.86635,374.50804 517.07884,373.09559 C 517.29134,372.13313 517.40383,371.58316 517.84131,370.18321 L 517.84131,370.18321 C 517.29134,371.25817 516.32887,372.8831 514.81644,372.8831 C 513.72898,372.8831 513.1915,372.23313 513.1915,370.72069 C 513.1915,368.1333 514.60395,365.5459 517.62882,365.5459 C 518.37879,365.5459 519.12876,365.6459 519.89123,365.75839 L 518.49129,373.32058 z M 517.29134,366.73335 C 515.46641,366.73335 514.70394,368.78327 514.70394,370.5082 C 514.70394,371.25817 514.92893,371.58316 515.35391,371.58316 C 516.54137,371.58316 517.84131,368.99576 518.1663,367.37083 L 518.2663,366.94585 C 517.94131,366.83335 517.72882,366.73335 517.29134,366.73335"
           style="fill:#ffffff;fill-rule:evenodd;stroke:none;stroke-width:0.21600001;stroke-linecap:butt;stroke-linejoin:miter;stroke-miterlimit:10;stroke-dasharray:none"
           id="path4374" />
        <path
           d="M 522.15364,372.77061 L 520.6412,372.77061 L 522.05364,365.6459 L 523.45358,365.6459 L 522.15364,372.77061 z M 523.0286,364.67094 C 522.47862,364.67094 522.15364,364.24596 522.15364,363.70848 C 522.15364,363.1585 522.59112,362.73352 523.1286,362.73352 C 523.66607,362.73352 524.10356,363.1585 523.99106,363.59598 C 523.99106,364.24596 523.56608,364.67094 523.0286,364.67094"
           style="fill:#ffffff;fill-rule:evenodd;stroke:none;stroke-width:0.21600001;stroke-linecap:butt;stroke-linejoin:miter;stroke-miterlimit:10;stroke-dasharray:none"
           id="path4376" />
        <path
           d="M 528.75337,366.83335 C 528.52837,366.73335 528.10339,366.73335 527.77841,366.73335 C 527.01594,366.73335 526.59095,367.04584 526.59095,367.59582 C 526.59095,368.67077 528.52837,368.99576 528.52837,370.5082 C 528.52837,371.69565 527.55341,372.8831 525.5035,372.8831 C 524.96602,372.8831 524.64103,372.8831 524.31605,372.77061 L 524.54104,371.48316 C 524.85353,371.58316 525.29101,371.69565 525.61599,371.69565 C 526.47846,371.69565 527.01594,371.37066 527.01594,370.72069 C 527.01594,369.64573 525.07852,369.43324 525.07852,367.80831 C 525.07852,366.50836 526.04098,365.5459 527.8784,365.5459 C 528.31588,365.5459 528.75337,365.6459 529.06585,365.6459 L 528.75337,366.83335 z "
           style="fill:#ffffff;fill-rule:evenodd;stroke:none;stroke-width:0.21600001;stroke-linecap:butt;stroke-linejoin:miter;stroke-miterlimit:10;stroke-dasharray:none"
           id="path4378" />
        <path
           d="M 534.69062,366.83335 L 532.95319,366.83335 L 532.31572,370.29571 C 532.09073,371.37066 532.20322,371.58316 532.8532,371.58316 C 533.27818,371.58316 533.50317,371.58316 533.82816,371.48316 L 533.71566,372.77061 C 533.27818,372.8831 532.7407,372.8831 532.31572,372.8831 C 530.90328,372.8831 530.47829,372.23313 530.80328,370.5082 L 531.45325,366.83335 L 530.15331,366.83335 L 530.3658,365.6459 L 531.66575,365.6459 L 532.09073,363.48349 L 533.60317,363.1585 L 533.17818,365.6459 L 534.90311,365.6459 L 534.69062,366.83335 z "
           style="fill:#ffffff;fill-rule:evenodd;stroke:none;stroke-width:0.21600001;stroke-linecap:butt;stroke-linejoin:miter;stroke-miterlimit:10;stroke-dasharray:none"
           id="path4380" />
        <path
           d="M 536.95303,372.77061 L 535.44059,372.77061 L 536.74054,365.6459 L 538.25298,365.6459 L 536.95303,372.77061 z M 537.81549,364.67094 C 537.27802,364.67094 536.95303,364.24596 536.95303,363.70848 C 536.95303,363.1585 537.39051,362.73352 537.92799,362.73352 C 538.46547,362.73352 538.79045,363.1585 538.79045,363.59598 C 538.79045,364.24596 538.36547,364.67094 537.81549,364.67094"
           style="fill:#ffffff;fill-rule:evenodd;stroke:none;stroke-width:0.21600001;stroke-linecap:butt;stroke-linejoin:miter;stroke-miterlimit:10;stroke-dasharray:none"
           id="path4382" />
        <path
           d="M 544.40272,367.04584 C 544.07774,366.94585 543.76525,366.83335 543.21527,366.83335 C 541.60284,366.83335 540.95286,368.67077 540.95286,370.18321 C 540.95286,370.83319 541.16536,371.58316 542.25281,371.58316 C 542.79029,371.58316 543.32777,371.48316 543.65275,371.25817 L 543.54026,372.55812 C 543.11528,372.77061 542.4653,372.8831 541.81533,372.8831 C 539.9779,372.8831 539.32793,371.90814 539.32793,370.5082 C 539.32793,367.80831 540.84037,365.5459 543.32777,365.5459 C 543.86524,365.5459 544.30273,365.6459 544.8402,365.75839 L 544.40272,367.04584 z "
           style="fill:#ffffff;fill-rule:evenodd;stroke:none;stroke-width:0.21600001;stroke-linecap:butt;stroke-linejoin:miter;stroke-miterlimit:10;stroke-dasharray:none"
           id="path4384" />
        <path
           d="M 549.49001,366.83335 C 549.26502,366.73335 548.84004,366.73335 548.51505,366.73335 C 547.75259,366.73335 547.3276,367.04584 547.3276,367.59582 C 547.3276,368.67077 549.26502,368.99576 549.26502,370.5082 C 549.26502,371.69565 548.19007,372.8831 546.24015,372.8831 C 545.70267,372.8831 545.37768,372.8831 545.0527,372.77061 L 545.27769,371.48316 C 545.60267,371.58316 546.02766,371.69565 546.35264,371.69565 C 547.21511,371.69565 547.75259,371.37066 547.75259,370.72069 C 547.75259,369.64573 545.81516,369.43324 545.81516,367.80831 C 545.81516,366.50836 546.79012,365.5459 548.61505,365.5459 C 549.05253,365.5459 549.49001,365.6459 549.815,365.6459 L 549.49001,366.83335 z "
           style="fill:#ffffff;fill-rule:evenodd;stroke:none;stroke-width:0.21600001;stroke-linecap:butt;stroke-linejoin:miter;stroke-miterlimit:10;stroke-dasharray:none"
           id="path4386" />
        <path
           d="M 559.73959,364.57094 C 559.31461,364.34595 558.77713,364.34595 558.45215,364.34595 C 557.1522,364.34595 556.50223,364.99593 556.50223,365.75839 C 556.50223,367.37083 559.31461,367.37083 559.31461,369.64573 C 559.31461,371.48316 557.80217,372.8831 555.53977,372.8831 C 554.98979,372.8831 554.45231,372.8831 553.91483,372.67061 L 554.23982,371.25817 C 554.6648,371.37066 555.20228,371.58316 555.63976,371.58316 C 557.0397,371.58316 557.68968,370.93318 557.68968,369.97072 C 557.68968,368.34579 554.98979,368.34579 554.98979,366.08338 C 554.98979,364.45845 556.17724,363.05851 558.55214,363.05851 C 558.98962,363.05851 559.5271,363.05851 559.96458,363.1585 L 559.73959,364.57094 z "
           style="fill:#ffffff;fill-rule:evenodd;stroke:none;stroke-width:0.21600001;stroke-linecap:butt;stroke-linejoin:miter;stroke-miterlimit:10;stroke-dasharray:none"
           id="path4388" />
        <path
           d="M 562.1145,375.04551 C 561.25203,375.90798 560.38957,376.34546 559.5271,376.34546 C 559.20212,376.34546 558.77713,376.34546 558.45215,376.23296 L 558.77713,374.93302 C 558.98962,374.93302 559.31461,375.04551 559.6396,375.04551 C 560.06458,375.04551 560.61456,374.83302 561.03954,374.28304 C 561.47702,373.85806 561.68951,373.20809 561.68951,372.23313 C 561.68951,370.29571 561.36453,368.0208 560.71455,365.6459 L 562.33949,365.6459 C 562.76447,367.37083 563.08946,369.53324 563.08946,371.04568 C 563.08946,371.25817 563.08946,371.48316 562.98946,371.80815 L 562.98946,371.80815 C 564.06442,369.85823 564.92688,367.92081 565.90184,365.43341 L 567.30178,365.85839 C 565.46436,370.29571 563.73943,373.32058 562.1145,375.04551"
           style="fill:#ffffff;fill-rule:evenodd;stroke:none;stroke-width:0.21600001;stroke-linecap:butt;stroke-linejoin:miter;stroke-miterlimit:10;stroke-dasharray:none"
           id="path4390" />
        <path
           d="M 571.62661,366.83335 C 571.30162,366.73335 570.97663,366.73335 570.65165,366.73335 C 569.78918,366.73335 569.46419,367.04584 569.46419,367.59582 C 569.46419,368.67077 571.41411,368.99576 571.41411,370.5082 C 571.41411,371.69565 570.32666,372.8831 568.27674,372.8831 C 567.85176,372.8831 567.52677,372.8831 567.08929,372.77061 L 567.41428,371.48316 C 567.73926,371.58316 568.06425,371.69565 568.48923,371.69565 C 569.3642,371.69565 569.90168,371.37066 569.90168,370.72069 C 569.90168,369.64573 567.95176,369.43324 567.95176,367.80831 C 567.95176,366.50836 568.81422,365.5459 570.76414,365.5459 C 571.18912,365.5459 571.51411,365.6459 571.95159,365.6459 L 571.62661,366.83335 z "
           style="fill:#ffffff;fill-rule:evenodd;stroke:none;stroke-width:0.21600001;stroke-linecap:butt;stroke-linejoin:miter;stroke-miterlimit:10;stroke-dasharray:none"
           id="path4392" />
        <path
           d="M 577.56386,366.83335 L 575.83893,366.83335 L 575.18896,370.29571 C 574.97647,371.37066 575.07646,371.58316 575.72644,371.58316 C 576.05142,371.58316 576.37641,371.58316 576.5889,371.48316 L 576.48891,372.77061 C 576.05142,372.8831 575.62644,372.8831 575.18896,372.8831 C 573.78902,372.8831 573.35153,372.23313 573.67652,370.5082 L 574.32649,366.83335 L 573.02655,366.83335 L 573.25154,365.6459 L 574.53899,365.6459 L 574.97647,363.48349 L 576.48891,363.1585 L 576.05142,365.6459 L 577.77635,365.6459 L 577.56386,366.83335 z "
           style="fill:#ffffff;fill-rule:evenodd;stroke:none;stroke-width:0.21600001;stroke-linecap:butt;stroke-linejoin:miter;stroke-miterlimit:10;stroke-dasharray:none"
           id="path4394" />
        <path
           d="M 579.93876,369.75823 C 579.83877,369.97072 579.83877,370.29571 579.83877,370.5082 C 579.83877,371.37066 580.16376,371.69565 581.23871,371.69565 C 581.88868,371.69565 582.63865,371.48316 583.18863,371.25817 L 583.18863,372.44562 C 582.53866,372.77061 581.66369,372.8831 580.70123,372.8831 C 579.0763,372.8831 578.32633,372.13313 578.32633,370.5082 C 578.32633,367.69581 579.93876,365.5459 582.21367,365.5459 C 583.8261,365.5459 584.37608,366.40837 584.37608,367.27083 C 584.37608,368.78327 582.75115,369.64573 579.93876,369.75823 z M 582.00118,366.73335 C 581.02622,366.73335 580.37625,367.59582 580.05126,368.67077 C 582.00118,368.67077 582.86364,368.23329 582.86364,367.37083 C 582.86364,366.94585 582.53866,366.73335 582.00118,366.73335"
           style="fill:#ffffff;fill-rule:evenodd;stroke:none;stroke-width:0.21600001;stroke-linecap:butt;stroke-linejoin:miter;stroke-miterlimit:10;stroke-dasharray:none"
           id="path4396" />
        <path
           d="M 594.73816,372.77061 L 593.33821,372.77061 L 594.20068,368.23329 C 594.31317,367.27083 594.20068,366.83335 593.6632,366.83335 C 592.80074,366.83335 591.2883,368.99576 590.96331,371.04568 L 590.63833,372.77061 L 589.12589,372.77061 L 589.98835,368.23329 C 590.20084,367.27083 589.98835,366.83335 589.55087,366.83335 C 588.47591,366.83335 587.07597,369.32075 586.75098,371.04568 L 586.426,372.77061 L 585.01356,372.77061 L 585.66353,369.10826 C 585.87602,367.92081 586.10101,366.62086 586.3135,365.6459 L 587.71345,365.6459 C 587.61345,366.18338 587.50095,366.94585 587.07597,368.23329 L 587.07597,368.23329 C 587.71345,366.83335 588.68841,365.5459 590.10085,365.5459 C 590.96331,365.5459 591.50079,366.08338 591.50079,366.94585 C 591.50079,367.27083 591.38829,367.69581 591.1758,368.23329 L 591.1758,368.23329 C 591.82578,366.83335 592.90073,365.5459 594.20068,365.5459 C 595.50063,365.5459 595.92561,366.50836 595.71312,367.92081 L 594.73816,372.77061 z "
           style="fill:#ffffff;fill-rule:evenodd;stroke:none;stroke-width:0.21600001;stroke-linecap:butt;stroke-linejoin:miter;stroke-miterlimit:10;stroke-dasharray:none"
           id="path4398" />
        <path
           d="M 601.43788,366.83335 C 601.1129,366.73335 600.78791,366.73335 600.46292,366.73335 C 599.60046,366.73335 599.16298,367.04584 599.16298,367.59582 C 599.16298,368.67077 601.1129,368.99576 601.1129,370.5082 C 601.1129,371.69565 600.13794,372.8831 598.08802,372.8831 C 597.65054,372.8831 597.22555,372.8831 596.90057,372.77061 L 597.11306,371.48316 C 597.55054,371.58316 597.87553,371.69565 598.30051,371.69565 C 599.06298,371.69565 599.60046,371.37066 599.60046,370.72069 C 599.60046,369.64573 597.65054,369.43324 597.65054,367.80831 C 597.65054,366.50836 598.6255,365.5459 600.46292,365.5459 C 601.0004,365.5459 601.32539,365.6459 601.65037,365.6459 L 601.43788,366.83335 z "
           style="fill:#ffffff;fill-rule:evenodd;stroke:none;stroke-width:0.21600001;stroke-linecap:butt;stroke-linejoin:miter;stroke-miterlimit:10;stroke-dasharray:none"
           id="path4400" />
        <path
           d="M 492.99233,347.07166 L 497.96713,321.58521 L 489.32998,321.58521 L 482.74275,355.60881 L 498.50461,355.60881 L 500.12954,347.07166 L 492.99233,347.07166 z "
           style="fill:#ffffff;fill-rule:evenodd;stroke:none;stroke-width:0.21600001;stroke-linecap:butt;stroke-linejoin:miter;stroke-miterlimit:10;stroke-dasharray:none"
           id="path4402" />
        <path
           d="M 518.49129,329.1474 C 519.89123,329.1474 521.94114,329.45988 523.1286,329.89737 L 524.64103,322.01019 C 522.80361,321.7977 520.86619,321.58521 518.70378,321.58521 C 509.30416,321.58521 504.87934,327.19748 504.87934,333.45972 C 504.87934,341.67188 513.304,341.55939 513.304,345.12174 C 513.304,346.85917 512.00405,347.82163 509.41666,347.82163 C 507.46674,347.82163 504.99184,347.39665 503.4794,346.74667 L 501.85447,355.17133 C 503.5794,355.60881 506.0668,355.8213 508.55419,355.8213 C 516.97885,355.8213 522.80361,350.19653 522.80361,343.39681 C 522.80361,335.40964 514.37895,335.29714 514.37895,331.73479 C 514.37895,330.22235 515.46641,329.1474 518.49129,329.1474"
           style="fill:#ffffff;fill-rule:evenodd;stroke:none;stroke-width:0.21600001;stroke-linecap:butt;stroke-linejoin:miter;stroke-miterlimit:10;stroke-dasharray:none"
           id="path4404" />
        <path
           d="M 475.93053,321.58521 C 462.96856,321.58521 454.65391,331.29731 454.65391,343.18432 C 454.65391,350.52152 458.5425,355.70881 468.48084,355.70881 C 472.36818,355.70881 476.46801,354.95884 479.81787,353.5464 L 482.95524,337.13457 L 474.3056,337.13457 L 472.36818,347.17166 C 471.60571,347.39665 470.74325,347.39665 469.99328,347.39665 C 465.66845,347.39665 464.15602,345.02175 464.15602,341.78438 C 464.15602,335.94712 467.71837,329.78487 475.18056,329.78487 C 477.23048,329.78487 479.49289,330.22235 481.5428,330.75983 C 481.76779,330.87233 481.98028,330.97232 482.19278,330.97232 C 482.84275,331.29731 483.49272,331.5223 483.9302,331.73479 L 485.75513,322.87265 C 482.74275,322.12269 479.1679,321.58521 475.93053,321.58521"
           style="fill:#ffffff;fill-rule:evenodd;stroke:none;stroke-width:0.21600001;stroke-linecap:butt;stroke-linejoin:miter;stroke-miterlimit:10;stroke-dasharray:none"
           id="path4406" />
        <path
           d="M 410.72321,321.6477 L 408.39456,332.94724 L 424.4589,332.94724 C 411.14944,352.67143 384.72928,349.32157 377.74207,341.1469 C 371.72731,334.09719 376.92335,322.04769 394.75387,314.59799 C 377.10334,319.97277 367.1975,334.07219 373.01851,343.5718 C 379.61574,354.33386 400.18739,358.82118 418.46914,353.59639 C 430.68739,349.30907 435.90218,343.28432 437.8071,340.04695 L 434.81472,355.68381 L 446.82423,355.68381 L 453.33896,321.6477 L 410.72321,321.6477 z "
           style="fill:#eaaf0f;fill-rule:evenodd;stroke:none;stroke-width:0.21600001;stroke-linecap:butt;stroke-linejoin:miter;stroke-miterlimit:10;stroke-dasharray:none"
           id="path4408" />
      </g>
    </g>
  </g>
</svg>
