<svg xmlns="http://www.w3.org/2000/svg" width="91" height="19" viewBox="0 0 91 19"><g fill-rule="evenodd"><path d="M86.688 11.915l4.26 6.416h-4.584l-2.076-3.264-2.077 3.264h-4.368l4.233-6.388-4.045-6.165h4.558l1.887 3.013 1.915-3.013h4.368l-4.071 6.137"></path><path d="M72.037 9.098c-1.295 0-2.023 1.227-2.023 2.957 0 1.73.728 2.929 2.023 2.929 1.321 0 2.05-1.2 2.05-2.93 0-1.729-.729-2.956-2.05-2.956zm0 9.512c-3.668 0-6.202-2.678-6.202-6.555 0-3.878 2.534-6.556 6.202-6.556 3.694 0 6.202 2.678 6.202 6.556 0 3.877-2.508 6.555-6.202 6.555zM56.698 13.7a2.028 2.028 0 0 0 1.861 1.172c1.456 0 2.319-1.2 2.319-2.817 0-1.618-.863-2.846-2.319-2.846-.809 0-1.537.502-1.86 1.172v3.32zm0 4.631h-4.233V.199h4.233v6.583c.567-.67 1.753-1.283 2.994-1.283 3.505 0 5.42 2.93 5.42 6.556s-1.915 6.555-5.42 6.555c-1.24 0-2.427-.614-2.994-1.283v1.004zM46.508 14.091c-.27-.53-.944-.865-1.699-.865-.836 0-1.672.363-1.672 1.2 0 .865.836 1.227 1.672 1.227.755 0 1.43-.335 1.699-.837v-.725zm0-3.32c0-.976-.863-1.673-2.589-1.673-1.16 0-2.346.307-3.317.892V6.476c.998-.558 2.616-.977 4.342-.977 3.586 0 5.636 1.758 5.636 5.077v7.755h-4.072v-.642c-.404.419-1.564.865-2.858.865-2.4 0-4.45-1.395-4.45-4.045 0-2.427 2.05-3.988 4.665-3.988 1.025 0 2.157.334 2.643.697v-.447zM36.824 18.331h-4.206v-9.15h-2.103V5.779h2.103V2.32h4.206v3.46h2.374v3.403h-2.374v9.149M20.313 13.728c1.16.977 3.048 1.59 4.288 1.59.836 0 1.375-.195 1.375-.753 0-.502-.377-.697-1.105-.864l-.944-.251c-2.238-.503-3.668-1.59-3.668-3.85 0-2.622 2.104-4.1 4.962-4.1 1.726 0 3.047.362 4.234 1.115v3.599c-1.16-.865-2.454-1.451-3.83-1.451-.727 0-1.213.251-1.213.753 0 .474.35.642.944.81l1.105.334c2.643.725 3.695 1.841 3.695 3.961 0 2.678-2.239 3.989-5.232 3.989-1.698 0-3.478-.418-4.61-1.2v-3.682M6.938 5.778h4.234v1.088c.674-.78 1.86-1.367 3.262-1.367 2.697 0 4.288 1.813 4.288 4.603v8.229h-4.207v-7.169c0-1.032-.512-1.785-1.59-1.785-.837 0-1.538.502-1.753 1.367v7.587H6.938V5.778M.75 18.331h4.233V5.778H.75v12.553zM2.88 4.718c-1.295 0-2.4-.92-2.4-2.343C.48.925 1.585.004 2.88.004c1.294 0 2.4.92 2.4 2.371 0 1.423-1.106 2.343-2.4 2.343z"></path></g></svg>
