<?xml version="1.0" encoding="utf-8"?>
<!-- Generator: Adobe Illustrator 19.2.1, SVG Export Plug-In . SVG Version: 6.00 Build 0)  -->
<svg version="1.1" id="layer" xmlns="http://www.w3.org/2000/svg" xmlns:xlink="http://www.w3.org/1999/xlink" x="0px" y="0px"
	 viewBox="0 0 652 652" style="enable-background:new 0 0 652 652;" xml:space="preserve">
<style type="text/css">
	.st0{fill:#FF8000;}
</style>
<g>
	<path class="st0" d="M233,312.5c2.5-22.5,19-38.5,42-38.5s40,16,42,38.5h36.5c-2.5-41.5-36-73.5-78-73.5s-76,32-78.5,73.5H233z
		 M148.5,321.5c-1,24.5-19,41.5-43,41.5s-42-17-42.5-41.5H26v143h36.5V381H63c10,10,24,17,44,17c43,0,76.5-32.5,77.5-76.5
		C184.5,321.5,148.5,321.5,148.5,321.5z M63,312.5c2-23,19.5-38.5,42.5-38.5s40.5,16,43,38.5H185c-2.5-42-34-73.5-76-73.5
		c-20,0-36,7.5-45.5,17.5h-1V242H26v70.5H63z M570.5,395H607v-73.5h-36.5V395z M491,395h36.5v-73.5H491V395z M448.5,321.5h-71
		c7.5,5,19.5,11,27,14c15,5.5,20.5,9,20.5,16s-8,11-18,11c-12,0-20.5-4.5-29-12l-24,24c14,14,28.5,23.5,53.5,23.5
		c26.5,0,54-19,54-47.5C461.5,338,456,328.5,448.5,321.5z M317.5,321.5c-1,24.5-18,41.5-42.5,41.5c-24,0-41.5-17.5-42.5-41.5H196
		c1,42.5,35.5,76.5,78.5,76.5s77.5-34,78.5-76.5C353,321.5,317.5,321.5,317.5,321.5z M607,242h-36.5v70.5H607V242z M491,312.5h36.5
		V274H561v-32h-33.5v-54.5H491V242h-27.5v32H491V312.5z M438.5,312.5c-7-4.5-15.5-8-23-10.5c-14-5-20.5-8.5-20.5-16.5
		c0-6.5,6.5-11,15-11c9,0,18,3.5,25.5,10.5l23.5-25.5c-14-13-28.5-20-49-20c-21,0-49.5,16.5-49.5,47.5c0,10.5,3.5,19,9,25.5H438.5z"
		/>
	<path class="st0" d="M601.5,196c-2.5,0-8,4.5-8,22c5.5-4.5,11-13.5,11-18.5C604,197,603.5,196,601.5,196z M578,207.5
		c-2,0-3,1.5-3,3.5c0,5,5,8,10.5,9c0-0.5,0-1,0-1.5C585.5,212.5,582.5,207.5,578,207.5z M565,221c4.5,3.5,8,7,12,7c2,0,3-0.5,4-1
		c-8.5-2.5-13.5-9.5-13.5-16c0-6,4-10.5,10.5-10.5c4,0,7,2,9.5,4c2.5-10,8.5-15.5,15-15.5c6,0,9,4.5,9,11c0,8-7.5,21-16.5,26
		c1,1.5,2.5,2.5,5,2.5c8,0,15-7,19.5-12.5c1-1,2-1.5,3-1.5c2,0,3.5,1.5,3.5,3.5c0,1-0.5,2-1,2.5c-4.5,5-13.5,15-25,15
		c-5,0-9-2.5-11-5.5c-3,3.5-7,5.5-12,5.5s-10-3.5-14.5-7c-2-1.5-4.5-3.5-6-4.5c-1.5-1.5-3-2-3.5-2c-3,0-4-2-4-4s1.5-3.5,4-3.5
		c2,0,4,1,6,2C561,217.5,563,219,565,221z"/>
</g>
</svg>
