<?xml version="1.0" encoding="utf-8"?>
<!-- Generator: Adobe Illustrator 19.1.0, SVG Export Plug-In . SVG Version: 6.00 Build 0)  -->
<svg version="1.0" id="Lager_1" xmlns="http://www.w3.org/2000/svg" xmlns:xlink="http://www.w3.org/1999/xlink" x="0px" y="0px"
	 viewBox="0 0 426.6 90.6" style="enable-background:new 0 0 426.6 90.6;" xml:space="preserve">
<style type="text/css">
	.st0{fill:#0082DC;}
	.st1{fill:#8C107E;}
</style>
<g>
	<path class="st0" d="M25.4,90.6C8.8,90.6,0,81.7,0,65.1V24.1h16.4v35.6c0,11.9,3.5,16.5,12.3,16.5c10.6,0,15.1-4.2,18.7-8.5V24.1
		h16.4v64.3H47.7v-6.4C43,86.5,36.4,90.6,25.4,90.6z"/>
</g>
<path class="st0" d="M135.5,88.5h-16.4V52.9c0-11.9-3.5-16.5-12.3-16.5c-10.6,0-15.1,4.2-18.7,8.5v43.6H71.6V24.1h16.2v6.5
	c4.8-4.4,11.1-8.5,22.3-8.5c16.6,0,25.4,8.8,25.4,25.5V88.5z"/>
<rect x="143.8" y="24.1" class="st0" width="16.4" height="64.3"/>
<rect x="143.8" class="st0" width="16.4" height="14.8"/>
<g>
	<path class="st1" d="M193,88.5h-16.4v-50h-10.7V24.1h10.7V20c0-8.5,3.7-14.4,10.9-17.6C193.1,0,199.3,0,201.9,0h0.2
		c5.6,0,9.6,0.7,15.7,1.9l0.8,0.2v14.4l-1.2-0.3c-7.1-1.6-9.1-1.7-12.1-1.8l-0.4,0c-4.6-0.2-7.9,0.7-9.8,2.5
		c-1.4,1.4-2.2,3.4-2.2,6.1v1.2h28.8l-7.6,14.3H193V88.5z"/>
</g>
<g>
	<path class="st1" d="M316.5,90.6c-16.6,0-25.4-8.8-25.4-25.5V24.1h16.4v35.6c0,11.9,3.5,16.5,12.3,16.5c10.6,0,15.1-4.2,18.7-8.5
		V24.1H355v64.3h-16.2v-6.4C334.1,86.5,327.6,90.6,316.5,90.6z"/>
</g>
<g>
	<path class="st1" d="M426.6,88.5h-16.4V52.9c0-11.9-3.5-16.5-12.3-16.5c-10.6,0-15.1,4.2-18.7,8.5v43.6h-16.4V24.1h16.2v6.5
		c4.8-4.4,11.1-8.5,22.3-8.5c16.6,0,25.4,8.8,25.4,25.5V88.5z"/>
</g>
<path class="st1" d="M284.9,87c-0.5-0.9-1-3.3-1-9.6V46.3c0-7.9,0-24.2-31.6-24.2c-12.1,0-27,3.1-31.8,17.4l16.4,2.5
	c0.9-2.4,3.8-6.3,15.5-6.3c10,0,15.1,2.4,15.1,7.1v1.8c-16.1,0.9-51.4,3.4-51.4,26.1c0,15.6,15.8,19.8,25.1,19.8
	c11.9,0,21-4.6,26.3-7.7c0.1,1.4,0.4,3,0.8,4.8l0.2,0.8h17.2L284.9,87z M267.5,69.7c-6.1,3.6-14.3,7.7-24.2,7.7
	c-3.5,0-6-0.8-7.6-2.5c-1.2-1.3-1.9-3-1.8-5.2c0.1-4.8,3.7-7.6,12.5-9.6c7-1.7,13.9-2.7,21.2-3.1V69.7z"/>
</svg>
