<svg xmlns="http://www.w3.org/2000/svg" width="32.499" height="32.499" viewBox="0 0 32.499 32.499"><g id="Group_9" data-name="Group 9" transform="translate(-2204.251 -1838.75)"><g id="Group_5" data-name="Group 5"><g id="Group_1" data-name="Group 1"><path id="Intersection_1" data-name="Intersection 1" d="M23,8.5a5.811,5.811,0,0,1,2.5-4.75,5.762,5.762,0,0,1,0,9.5A5.811,5.811,0,0,1,23,8.5Z" transform="translate(2195 1835)" fill="#d3202b"></path><path id="Intersection_2" data-name="Intersection 2" d="M23,8.5a5.811,5.811,0,0,1,2.5-4.75,5.762,5.762,0,0,1,0,9.5A5.811,5.811,0,0,1,23,8.5Z" transform="translate(2195 1858)" fill="#d3202b"></path></g><g id="Group_2" data-name="Group 2" transform="translate(365.5 4075.5) rotate(-90)"><path id="Intersection_1-2" data-name="Intersection 1" d="M23,8.5a5.811,5.811,0,0,1,2.5-4.75,5.762,5.762,0,0,1,0,9.5A5.811,5.811,0,0,1,23,8.5Z" transform="translate(2195 1835)" fill="#d3202b"></path><path id="Intersection_2-2" data-name="Intersection 2" d="M23,8.5a5.811,5.811,0,0,1,2.5-4.75,5.762,5.762,0,0,1,0,9.5A5.811,5.811,0,0,1,23,8.5Z" transform="translate(2195 1858)" fill="#d3202b"></path></g><g id="Group_3" data-name="Group 3" transform="translate(2478.948 4736.813) rotate(-135)"><path id="Intersection_1-3" data-name="Intersection 1" d="M23,8.5a5.811,5.811,0,0,1,2.5-4.75,5.762,5.762,0,0,1,0,9.5A5.811,5.811,0,0,1,23,8.5Z" transform="translate(2195 1835)" fill="#d3202b"></path><path id="Intersection_2-3" data-name="Intersection 2" d="M23,8.5a5.811,5.811,0,0,1,2.5-4.75,5.762,5.762,0,0,1,0,9.5A5.811,5.811,0,0,1,23,8.5Z" transform="translate(2195 1858)" fill="#d3202b"></path></g><g id="Group_4" data-name="Group 4" transform="translate(5102.314 1596.552) rotate(135)"><path id="Intersection_1-4" data-name="Intersection 1" d="M23,8.5a5.811,5.811,0,0,1,2.5-4.75,5.762,5.762,0,0,1,0,9.5A5.811,5.811,0,0,1,23,8.5Z" transform="translate(2195 1835)" fill="#d3202b"></path><path id="Intersection_2-4" data-name="Intersection 2" d="M23,8.5a5.811,5.811,0,0,1,2.5-4.75,5.762,5.762,0,0,1,0,9.5A5.811,5.811,0,0,1,23,8.5Z" transform="translate(2195 1858)" fill="#d3202b"></path></g></g><g id="Group_1-2" data-name="Group 1" transform="translate(2215.825 1847.035) rotate(-22)"><path id="Intersection_1-5" data-name="Intersection 1" d="M0,2.664A3.259,3.259,0,0,1,1.4,0,3.259,3.259,0,0,1,2.8,2.664,3.259,3.259,0,0,1,1.4,5.328,3.259,3.259,0,0,1,0,2.664Z" transform="translate(0 0)" fill="#d3202b"></path><path id="Intersection_2-5" data-name="Intersection 2" d="M0,2.664A3.259,3.259,0,0,1,1.4,0,3.259,3.259,0,0,1,2.8,2.664,3.259,3.259,0,0,1,1.4,5.328,3.259,3.259,0,0,1,0,2.664Z" transform="translate(0 12.9)" fill="#d3202b"></path></g><g id="Group_6" data-name="Group 6" transform="translate(2222.965 1846.064) rotate(24)"><path id="Intersection_1-6" data-name="Intersection 1" d="M0,2.664A3.259,3.259,0,0,1,1.4,0,3.259,3.259,0,0,1,2.8,2.664,3.259,3.259,0,0,1,1.4,5.328,3.259,3.259,0,0,1,0,2.664Z" transform="translate(0 0)" fill="#d3202b"></path><path id="Intersection_2-6" data-name="Intersection 2" d="M0,2.664A3.259,3.259,0,0,1,1.4,0,3.259,3.259,0,0,1,2.8,2.664,3.259,3.259,0,0,1,1.4,5.328,3.259,3.259,0,0,1,0,2.664Z" transform="translate(0 12.9)" fill="#d3202b"></path></g><g id="Group_7" data-name="Group 7" transform="translate(2228.464 1850.246) rotate(68)"><path id="Intersection_1-7" data-name="Intersection 1" d="M0,2.664A3.259,3.259,0,0,1,1.4,0,3.259,3.259,0,0,1,2.8,2.664,3.259,3.259,0,0,1,1.4,5.328,3.259,3.259,0,0,1,0,2.664Z" transform="translate(0 0)" fill="#d3202b"></path><path id="Intersection_2-7" data-name="Intersection 2" d="M0,2.664A3.259,3.259,0,0,1,1.4,0,3.259,3.259,0,0,1,2.8,2.664,3.259,3.259,0,0,1,1.4,5.328,3.259,3.259,0,0,1,0,2.664Z" transform="translate(0 12.9)" fill="#d3202b"></path></g><g id="Group_8" data-name="Group 8" transform="translate(2229.514 1857.074) rotate(112)"><path id="Intersection_1-8" data-name="Intersection 1" d="M0,2.664A3.259,3.259,0,0,1,1.4,0,3.259,3.259,0,0,1,2.8,2.664,3.259,3.259,0,0,1,1.4,5.328,3.259,3.259,0,0,1,0,2.664Z" transform="translate(0 0)" fill="#d3202b"></path><path id="Intersection_2-8" data-name="Intersection 2" d="M0,2.664A3.259,3.259,0,0,1,1.4,0,3.259,3.259,0,0,1,2.8,2.664,3.259,3.259,0,0,1,1.4,5.328,3.259,3.259,0,0,1,0,2.664Z" transform="translate(0 12.9)" fill="#d3202b"></path></g></g></svg>